<?xml version="1.0" standalone="no"?><!DOCTYPE svg PUBLIC "-//W3C//DTD SVG 1.1//EN" "http://www.w3.org/Graphics/SVG/1.1/DTD/svg11.dtd"><svg t="1645693674424" class="icon" viewBox="0 0 1024 1024" version="1.1" xmlns="http://www.w3.org/2000/svg" p-id="42465" data-spm-anchor-id="a313x.7781069.0.i56" xmlns:xlink="http://www.w3.org/1999/xlink" width="300" height="300"><defs><style type="text/css"></style></defs><path d="M470.64 835.893c-194.57 0-352.438-103.693-352.438-231.269s236.512-329.136 326.806-329.136c37.866 0 112.431 28.545 60.585 119.421-3.495 6.407 117.674-53.011 183.501-13.981 66.41 39.030 0 101.362 0 108.353s132.819 6.991 132.819 114.761c-0.582 128.159-156.704 231.852-351.273 231.852z" fill="#e98f36" p-id="42466" data-spm-anchor-id="a313x.7781069.0.i49" class=""></path><path d="M747.347 363.452c-22.137-26.214-66.992-20.389-66.992-20.389-9.321 0-16.894-6.407-16.894-15.729v-6.407c0-9.321 6.991-17.476 16.311-19.223 0 0 53.594-13.398 94.955 23.884 41.36 37.283 23.301 106.022 23.301 106.022-1.747 9.321-10.485 16.311-19.223 16.311h-15.146c-8.738 0-14.563-6.991-11.651-15.729 0 0.582 17.476-42.526-4.66-68.74z" fill="#ea986c" p-id="42467" data-spm-anchor-id="a313x.7781069.0.i52" class=""></path><path d="M902.303 453.164c-1.747 13.398-13.981 24.467-27.962 24.467h-10.485c-13.981 0-23.301-11.069-20.972-24.467 0 0 19.807-82.721-25.632-148.548s-151.461-54.759-151.461-54.759c-13.981 0-25.050-10.485-25.050-23.884v-12.234c0-13.981 11.069-25.050 24.467-25.050 0 0 110.683-9.903 185.831 62.332 75.73 72.236 51.264 202.142 51.264 202.142z" fill="#ea986c" p-id="42468" data-spm-anchor-id="a313x.7781069.0.i55" class=""></path><path d="M438.017 467.727c-124.081 17.476-216.123 98.45-204.473 180.588s121.751 134.567 245.833 117.091c124.665-17.476 216.123-98.45 204.473-180.588-11.069-82.139-121.169-134.567-245.833-117.091z" fill="#FFFFFF" p-id="42469"></path><path d="M456.658 742.687c-73.983 14.563-143.888-24.467-156.122-87.381-12.234-62.332 37.866-125.247 111.849-139.228 73.983-14.563 143.888 24.467 156.122 87.381 12.234 62.332-37.866 124.665-111.849 139.228z" fill="#2c2c2c" p-id="42470" data-spm-anchor-id="a313x.7781069.0.i51" class=""></path><path d="M377.433 618.022c-22.719 10.485-34.953 33.205-26.797 50.682s33.205 22.719 55.924 12.234 34.953-33.205 26.797-50.682c-8.156-17.476-33.205-23.301-55.924-12.234zM458.989 581.905c-12.234 0-22.719 10.485-22.719 23.301s9.903 23.301 22.719 23.301c12.234 0 22.719-10.485 22.719-23.301s-10.485-23.301-22.719-23.301z" fill="#FFFFFF" p-id="42471"></path></svg>