<?xml version="1.0" standalone="no"?><!DOCTYPE svg PUBLIC "-//W3C//DTD SVG 1.1//EN" "http://www.w3.org/Graphics/SVG/1.1/DTD/svg11.dtd"><svg t="1645694721801" class="icon" viewBox="0 0 1024 1024" version="1.1" xmlns="http://www.w3.org/2000/svg" p-id="47482" xmlns:xlink="http://www.w3.org/1999/xlink" width="300" height="300"><defs><style type="text/css"></style></defs><path d="M58.026667 464.213333L109.226667 375.466667 375.466667 116.053333l98.986666-51.2H546.133333l109.226667 47.786667 296.96 310.613333V512l-20.48 81.92-27.306667 68.266667-61.44 64.853333-133.12 139.946667-92.16 75.093333-78.506666 27.306667h-75.093334l-58.026666-30.72-228.693334-225.28-95.573333-102.4-23.893333-68.266667z" fill="#409eff" opacity=".4" p-id="47483" data-spm-anchor-id="a313x.7781069.0.i58" class="selected"></path><path d="M938.666667 368.64l-13.653334-13.653333c-64.853333-75.093333-180.906667-187.733333-256-256l-13.653333-13.653334C617.813333 51.2 566.613333 34.133333 512 34.133333s-105.813333 17.066667-143.36 51.2l-13.653333 13.653334c-75.093333 64.853333-187.733333 180.906667-256 256l-13.653334 13.653333c-68.266667 78.506667-68.266667 204.8 0 286.72l13.653334 13.653333c64.853333 75.093333 180.906667 187.733333 256 256l13.653333 13.653334c37.546667 34.133333 88.746667 51.2 143.36 51.2s105.813333-17.066667 143.36-51.2l13.653333-13.653334 10.24-6.826666c23.893333-20.48 34.133333-30.72 68.266667-61.44l6.826667-6.826667c6.826667-13.653333 3.413333-30.72-10.24-37.546667-13.653333-6.826667-30.72-6.826667-40.96 3.413334-3.413333 3.413333-47.786667 44.373333-75.093334 68.266666l-13.653333 6.826667c-27.306667 23.893333-61.44 37.546667-102.4 37.546667s-75.093333-13.653333-102.4-37.546667l-13.653333-13.653333c-71.68-64.853333-184.32-177.493333-249.173334-249.173334l-13.653333-13.653333c-23.893333-27.306667-37.546667-61.44-37.546667-102.4s13.653333-75.093333 37.546667-102.4l13.653333-13.653333c64.853333-71.68 177.493333-184.32 249.173334-249.173334l13.653333-13.653333c27.306667-23.893333 61.44-37.546667 102.4-37.546667 37.546667 0 75.093333 13.653333 102.4 37.546667l13.653333 13.653333c71.68 64.853333 184.32 177.493333 249.173334 249.173334l13.653333 13.653333c47.786667 54.613333 47.786667 153.6 0 204.8l-6.826667 6.826667c-20.48 23.893333-34.133333 37.546667-47.786666 40.96-13.653333 3.413333-30.72 0-61.44-17.066667-54.613333-23.893333-129.706667-68.266667-153.6-81.92 10.24-20.48 34.133333-71.68 47.786666-122.88l3.413334-13.653333h-129.706667V409.6h167.253333v-61.44h-167.253333V273.066667h-61.44v78.506666H307.2v61.44h167.253333v17.066667h-129.706666v61.44h232.106666c-3.413333 17.066667-13.653333 34.133333-20.48 47.786667-23.893333-10.24-88.746667-30.72-153.6-30.72-40.96 0-75.093333 10.24-98.986666 30.72-23.893333 20.48-37.546667 47.786667-37.546667 81.92s13.653333 61.44 34.133333 81.92c23.893333 20.48 58.026667 30.72 95.573334 30.72 47.786667 0 95.573333-20.48 136.533333-58.026667 17.066667-13.653333 34.133333-30.72 47.786667-47.786667 23.893333 13.653333 95.573333 54.613333 163.84 88.746667 44.373333 23.893333 75.093333 27.306667 102.4 13.653333 27.306667-10.24 51.2-37.546667 81.92-75.093333 78.506667-78.506667 78.506667-208.213333 10.24-286.72z m-539.306667 303.786667c-64.853333 0-68.266667-40.96-68.266667-51.2 0-13.653333 3.413333-23.893333 13.653334-34.133334 10.24-13.653333 30.72-20.48 54.613333-20.48 54.613333 0 102.4 17.066667 122.88 27.306667-20.48 23.893333-71.68 78.506667-122.88 78.506667z" fill="#409eff" p-id="47484" data-spm-anchor-id="a313x.7781069.0.i64" class=""></path></svg>